# File created by Blade
# Date/Time:  Tue Apr 07 20:18:06 2015
#---------------------------------------------------------
:version 1.10
:name HOM
:units
  mass 1.0
  length 1.000000
  angle deg
:documentation
     Acclaim Skeleton File
:root
   axis xyz
   order TX TY TZ RX RY RZ
   position 0.000000 0.000000 0.000000
   orientation 0 0 0
:bonedata
   begin
      id 1
      name Spine_dum
      direction 0.000000 1.000000 0.000000
      length 4.885285
      axis 0.0 0.0 0.0 xyz
   end
   begin
      id 2
      name LeftUpLeg_dum
      direction 1.000000 0.000000 0.000000
      length 2.672193
      axis 0.0 0.0 0.0 xyz
   end
   begin
      id 3
      name RightUpLeg_dum
      direction -1.000000 0.000000 0.000000
      length 2.672193
      axis 0.0 0.0 0.0 xyz
   end
   begin
      id 4
      name Spine
      direction 0.000000 1.000000 0.000000
      length 0.000000
      axis 0.0 0.0 0.0 xyz
      dof rx ry rz
   end
   begin
      id 5
      name Spine_dum1
      direction 0.000000 1.000000 0.000000
      length 16.494159
      axis 0.0 0.0 0.0 xyz
   end
   begin
      id 6
      name Spine_dum2
      direction 0.000000 1.000000 0.000000
      length 10.663448
      axis 0.0 0.0 0.0 xyz
   end
   begin
      id 7
      name Spine_dum3
      direction 0.000000 1.000000 0.000000
      length 10.663448
      axis 0.0 0.0 0.0 xyz
   end
   begin
      id 8
      name Head
      direction 0.000000 1.000000 0.000000
      length 4.527550
      axis 0.0 0.0 0.0 xyz
      dof rx ry rz
   end
   begin
      id 9
      name LeftShoulder
      direction 1.000000 0.000000 0.000000
      length 7.531907
      axis 0.0 0.0 -90.0 xyz
      dof rx ry rz
   end
   begin
      id 10
      name LeftArm
      direction 1.000000 0.000000 0.000000
      length 10.229199
      axis 0.0 0.0 -90.0 xyz
      dof rx ry rz
   end
   begin
      id 11
      name LeftForeArm
      direction 1.000000 0.000000 0.000000
      length 8.673495
      axis 0.0 0.0 -90.0 xyz
      dof ry rz rx
   end
   begin
      id 12
      name LeftHand
      direction 0.000000 0.000000 0.000000
      length 0.000000
      axis 0.0 0.0 -90.0 xyz
      dof rx ry rz
   end
   begin
      id 13
      name LeftHand_dum1
      direction 0.000000 0.000000 0.000000
      length 0.000000
      axis 0.0 0.0 -90.0 xyz
   end
   begin
      id 14
      name LeftHand_dum2
      direction 1.000000 0.000000 0.000000
      length 3.937000
      axis 0.0 0.0 -90.0 xyz
   end
   begin
      id 15
      name LeftHandThumb1
      direction 0.000000 0.000000 1.000000
      length 3.937000
      axis 0.0 0.0 -90.0 xyz
      dof rx rz ry
   end
   begin
      id 16
      name RightShoulder
      direction -1.000000 0.000000 0.000000
      length 7.531907
      axis 0.0 0.0 90.0 xyz
      dof rx ry rz
   end
   begin
      id 17
      name RightArm
      direction -1.000000 0.000000 0.000000
      length 10.229199
      axis 0.0 0.0 90.0 xyz
      dof rx ry rz
   end
   begin
      id 18
      name RightForeArm
      direction -1.000000 0.000000 0.000000
      length 8.673495
      axis 0.0 0.0 90.0 xyz
      dof ry rz rx
   end
   begin
      id 19
      name RightHand
      direction 0.000000 0.000000 0.000000
      length 0.000000
      axis 0.0 0.0 90.0 xyz
      dof rx ry rz
   end
   begin
      id 20
      name RightHand_dum1
      direction 0.000000 0.000000 0.000000
      length 0.000000
      axis 0.0 0.0 90.0 xyz
   end
   begin
      id 21
      name RightHand_dum2
      direction -1.000000 0.000000 0.000000
      length 3.937000
      axis 0.0 0.0 90.0 xyz
   end
   begin
      id 22
      name RightHandThumb1
      direction 0.000000 0.000000 1.000000
      length 3.937000
      axis 0.0 0.0 90.0 xyz
      dof rx rz ry
   end
   begin
      id 23
      name LeftUpLeg
      direction 0.000000 -1.000000 0.000000
      length 16.263388
      axis 0.0 0.0 0.0 xyz
      dof rx ry rz
   end
   begin
      id 24
      name LeftLeg
      direction 0.000000 -1.000000 0.000000
      length 14.328163
      axis 0.0 0.0 0.0 xyz
      dof rx ry rz
   end
   begin
      id 25
      name LeftFoot
      direction 0.000000 -0.258819 0.965926
      length 5.031290
      axis 15.0 0.0 0.0 xyz
      dof rx ry rz
   end
   begin
      id 26
      name LeftToeBase
      direction 0.000000 0.000000 1.000000
      length 2.952750
      axis 0.0 0.0 0.0 xyz
      dof rx ry rz
   end
   begin
      id 27
      name RightUpLeg
      direction 0.000000 -1.000000 0.000000
      length 16.263388
      axis 0.0 0.0 0.0 xyz
      dof rx ry rz
   end
   begin
      id 28
      name RightLeg
      direction 0.000000 -1.000000 0.000000
      length 14.328163
      axis 0.0 0.0 0.0 xyz
      dof rx ry rz
   end
   begin
      id 29
      name RightFoot
      direction 0.000000 -0.258819 0.965926
      length 5.031290
      axis 15.0 0.0 0.0 xyz
      dof rx ry rz
   end
   begin
      id 30
      name RightToeBase
      direction 0.000000 0.000000 1.000000
      length 2.952750
      axis 0.0 0.0 0.0 xyz
      dof rx ry rz
   end
:hierarchy
   begin
      root Spine_dum LeftUpLeg_dum RightUpLeg_dum
      Spine_dum Spine
      LeftUpLeg_dum LeftUpLeg
      RightUpLeg_dum RightUpLeg
      Spine Spine_dum1 Spine_dum2 Spine_dum3
      Spine_dum1 Head
      Spine_dum2 LeftShoulder
      Spine_dum3 RightShoulder
      LeftShoulder LeftArm
      LeftArm LeftForeArm
      LeftForeArm LeftHand
      LeftHand LeftHand_dum1 LeftHand_dum2
      LeftHand_dum1 LeftHandThumb1
      RightShoulder RightArm
      RightArm RightForeArm
      RightForeArm RightHand
      RightHand RightHand_dum1 RightHand_dum2
      RightHand_dum1 RightHandThumb1
      LeftUpLeg LeftLeg
      LeftLeg LeftFoot
      LeftFoot LeftToeBase
      RightUpLeg RightLeg
      RightLeg RightFoot
      RightFoot RightToeBase
   end

# File created by Blade
# Date/Time:  Tue Apr 07 20:17:56 2015
# Frame Rate: 120.000 fps
#------------------------------------------------------
:FULLY-SPECIFIED
:DEGREES
180
root 2.550658 32.993328 -6.853722 13.773585 2.634161 -0.589588
Spine -15.474623 -6.649755 -0.025220
Head 12.095684 -1.538633 0.820375
LeftShoulder -20.950138 46.226399 11.370049
LeftArm 55.287651 -25.813457 -78.974342
LeftForeArm -4.020380 -0.000000 4.193018
LeftHand 8.617886 0.000000 4.835422
LeftHandThumb1 -26.253704 0.000000 33.147579
RightShoulder -6.466411 -4.551302 -21.821763
RightArm 13.399130 4.632583 67.853513
RightForeArm -3.273999 -0.000000 5.524000
RightHand 5.552122 -0.000000 1.280642
RightHandThumb1 -24.326973 -0.000000 -32.862282
LeftUpLeg -7.233531 0.321317 -0.337213
LeftLeg -2.738317 -0.000000 0.000000
LeftFoot -3.290731 8.384970 -14.781683
LeftToeBase -6.762162 -0.000000 0.000000
RightUpLeg -7.777842 -3.948421 1.382510
RightLeg -2.662762 -0.000000 0.000000
RightFoot -4.010953 -5.813049 5.368180
RightToeBase -0.548103 -0.000000 0.000000
181
root 2.555733 32.942057 -6.887023 13.775064 2.563141 -0.602980
Spine -15.374399 -6.585645 -0.037388
Head 11.924236 -1.541667 0.885412
LeftShoulder -21.013333 46.202098 11.085180
LeftArm 55.333626 -24.862526 -79.550195
LeftForeArm -3.989008 -0.000000 4.214060
LeftHand 8.578402 -0.000000 4.766148
LeftHandThumb1 -26.253704 0.000000 33.147579
RightShoulder -6.425408 -4.727538 -21.577958
RightArm 13.462951 4.123338 68.679824
RightForeArm -3.195501 -0.000000 5.543757
RightHand 5.523337 -0.000000 1.483112
RightHandThumb1 -24.326973 -0.000000 -32.862282
LeftUpLeg -7.201110 0.245509 -0.343504
LeftLeg -2.859017 -0.000000 0.000000
LeftFoot -3.772479 8.455806 -14.704792
LeftToeBase -6.396839 -0.000000 0.000000
RightUpLeg -7.773795 -3.772162 1.381885
RightLeg -2.760386 -0.000000 0.000000
RightFoot -4.475672 -6.008138 5.181893
RightToeBase -0.188778 -0.000000 0.000000
182
root 2.562209 32.892847 -6.918798 13.744043 2.513350 -0.591287
Spine -15.245327 -6.534054 -0.082996
Head 11.775582 -1.570441 0.976911
LeftShoulder -20.949854 46.057756 10.913286
LeftArm 55.155537 -23.862792 -80.024898
LeftForeArm -3.922706 -0.000000 4.322822
LeftHand 8.399503 -0.000000 4.839608
LeftHandThumb1 -26.253704 0.000000 33.147579
RightShoulder -6.362866 -4.917903 -21.289410
RightArm 13.526946 3.633147 69.456000
RightForeArm -3.120147 -0.000000 5.523258
RightHand 5.516325 0.000000 1.711689
RightHandThumb1 -24.326973 -0.000000 -32.862282
LeftUpLeg -7.047290 -0.094380 -0.328288
LeftLeg -3.157046 -0.000000 0.000000
LeftFoot -4.184155 8.753376 -14.745557
LeftToeBase -6.153085 -0.000000 0.000000
RightUpLeg -7.639904 -3.534564 1.328256
RightLeg -3.042094 -0.000000 0.000000
RightFoot -4.845169 -6.224457 5.160484
RightToeBase 0.135225 -0.000000 -0.000000
183
root 2.569955 32.846635 -6.956463 13.761195 2.437689 -0.556163
Spine -15.154038 -6.462443 -0.160289
Head 11.619944 -1.596582 1.075024
LeftShoulder -20.801202 45.827586 10.824439
LeftArm 54.852554 -22.863612 -80.482577
LeftForeArm -3.918928 -0.000000 4.407330
LeftHand 8.382292 -0.000000 4.804755
LeftHandThumb1 -26.253704 0.000000 33.147579
RightShoulder -6.311312 -5.182707 -20.958405
RightArm 13.706031 3.103396 70.201293
RightForeArm -2.876115 -0.000000 5.416084
RightHand 5.546113 -0.000000 1.889405
RightHandThumb1 -24.326973 -0.000000 -32.862282
LeftUpLeg -6.966348 -0.302994 -0.357913
LeftLeg -3.414556 -0.000000 0.000000
LeftFoot -4.565696 8.938971 -14.763649
LeftToeBase -5.863456 -0.000000 0.000000
RightUpLeg -7.628700 -3.508882 1.299752
RightLeg -3.197110 -0.000000 0.000000
RightFoot -5.259747 -6.317879 4.957116
RightToeBase 0.600196 -0.000000 -0.000000
184
root 2.576240 32.803745 -6.992192 13.749485 2.355638 -0.543358
Spine -15.035606 -6.381182 -0.228868
Head 11.463841 -1.638673 1.206569
LeftShoulder -20.773203 45.857295 10.575329
LeftArm 54.865008 -21.913300 -81.067181
LeftForeArm -3.969821 0.000000 4.460994
LeftHand 8.350822 -0.000000 4.586125
LeftHandThumb1 -26.253704 0.000000 33.147579
RightShoulder -6.248806 -5.426971 -20.572172
RightArm 13.869681 2.635880 70.882862
RightForeArm -2.875520 -0.000000 5.323639
RightHand 5.723665 0.000000 1.913995
RightHandThumb1 -24.326973 -0.000000 -32.862282
LeftUpLeg -6.868268 -0.355602 -0.376889
LeftLeg -3.643277 -0.000000 0.000000
LeftFoot -4.908408 8.954793 -14.854292
LeftToeBase -5.631768 -0.000000 0.000000
RightUpLeg -7.554189 -3.358718 1.260879
RightLeg -3.407900 -0.000000 0.000000
RightFoot -5.615222 -6.463625 4.850260
RightToeBase 0.945268 -0.000000 -0.000000
185
root 2.579923 32.767144 -7.029539 13.783755 2.295084 -0.549401
Spine -14.967810 -6.301600 -0.287071
Head 11.337172 -1.709415 1.369729
LeftShoulder -20.710706 45.908803 10.362718
LeftArm 54.848380 -20.922156 -81.633026
LeftForeArm -3.969751 -0.000000 4.522136
LeftHand 8.409482 -0.000000 4.578717
LeftHandThumb1 -26.253704 0.000000 33.147579
RightShoulder -6.223917 -5.684200 -20.157349
RightArm 14.063283 2.086831 71.528609
RightForeArm -2.895201 0.000000 5.224052
RightHand 5.697229 0.000000 2.170642
RightHandThumb1 -24.326973 -0.000000 -32.862282
LeftUpLeg -6.810694 -0.517329 -0.348865
LeftLeg -3.890418 -0.000000 0.000000
LeftFoot -5.229277 9.055525 -14.942886
LeftToeBase -5.340869 -0.000000 0.000000
RightUpLeg -7.532570 -3.240761 1.253554
RightLeg -3.605718 -0.000000 0.000000
RightFoot -5.921341 -6.593788 4.730261
RightToeBase 1.247006 -0.000000 -0.000000
186
root 2.583307 32.736968 -7.071812 13.855666 2.233545 -0.536587
Spine -14.948743 -6.268108 -0.334999
Head 11.245060 -1.736764 1.476378
LeftShoulder -20.641067 46.012128 10.110218
LeftArm 54.803531 -19.957888 -82.160913
LeftForeArm -3.878856 0.000000 4.592170
LeftHand 8.445422 -0.000000 4.527335
LeftHandThumb1 -26.253704 0.000000 33.147579
RightShoulder -6.156462 -5.905859 -19.803397
RightArm 14.247955 1.557690 72.264782
RightForeArm -2.823603 -0.000000 5.111056
RightHand 5.677541 -0.000000 2.108361
RightHandThumb1 -24.326973 -0.000000 -32.862282
LeftUpLeg -6.845354 -0.590648 -0.347596
LeftLeg -4.047939 -0.000000 0.000000
LeftFoot -5.516682 9.044429 -15.085255
LeftToeBase -5.112119 -0.000000 0.000000
RightUpLeg -7.597927 -3.182185 1.232760
RightLeg -3.729504 -0.000000 0.000000
RightFoot -6.229703 -6.640300 4.684885
RightToeBase 1.412117 -0.000000 -0.000000
187
root 2.585120 32.715412 -7.117188 13.993319 2.191532 -0.556060
Spine -14.981794 -6.210162 -0.356388
Head 11.107247 -1.801627 1.609107
LeftShoulder -20.531777 46.072314 9.899165
LeftArm 54.660186 -18.912490 -82.577896
LeftForeArm -3.858282 -0.000000 4.704414
LeftHand 8.411522 -0.000000 4.818008
LeftHandThumb1 -26.253704 0.000000 33.147579
RightShoulder -6.199808 -6.126568 -19.444147
RightArm 14.439468 0.964043 73.016817
RightForeArm -2.764852 0.000000 5.036033
RightHand 5.681751 -0.000000 2.104673
RightHandThumb1 -24.326973 -0.000000 -32.862282
LeftUpLeg -6.999531 -0.655370 -0.306892
LeftLeg -4.111000 -0.000000 0.000000
LeftFoot -5.812738 8.991420 -15.286227
LeftToeBase -4.910375 -0.000000 0.000000
RightUpLeg -7.752687 -3.078000 1.235738
RightLeg -3.818641 -0.000000 0.000000
RightFoot -6.460011 -6.689916 4.754442
RightToeBase 1.637024 -0.000000 -0.000000
188
root 2.593549 32.701085 -7.154712 14.106329 2.112010 -0.560451
Spine -15.022717 -6.143820 -0.366367
Head 11.034438 -1.820911 1.687005
LeftShoulder -20.642248 46.459880 9.401275
LeftArm 54.897791 -17.874333 -83.007506
LeftForeArm -3.705591 0.000000 4.750647
LeftHand 8.281807 0.000000 5.097464
LeftHandThumb1 -26.253704 0.000000 33.147579
RightShoulder -6.210455 -6.304289 -19.176872
RightArm 14.546898 0.323007 73.840190
RightForeArm -2.598165 -0.000000 4.990968
RightHand 5.686376 0.000000 2.296916
RightHandThumb1 -24.326973 -0.000000 -32.862282
LeftUpLeg -7.125896 -0.707995 -0.300239
LeftLeg -4.147521 -0.000000 0.000000
LeftFoot -6.076833 8.964240 -15.438667
LeftToeBase -4.559626 -0.000000 0.000000
RightUpLeg -7.899774 -3.037791 1.205530
RightLeg -3.853614 -0.000000 0.000000
RightFoot -6.615688 -6.586017 4.819129
RightToeBase 1.788601 -0.000000 -0.000000
189
root 2.599608 32.693526 -7.201049 14.288769 2.073208 -0.587137
Spine -15.121889 -6.123713 -0.326601
Head 10.943042 -1.831239 1.739886
LeftShoulder -20.662050 46.607502 9.038601
LeftArm 54.831176 -16.746078 -83.305773
LeftForeArm -3.613775 -0.000000 4.817876
LeftHand 8.271698 0.000000 4.558789
LeftHandThumb1 -26.253704 0.000000 33.147579
RightShoulder -6.210043 -6.413547 -18.980597
RightArm 14.557028 -0.313737 74.787602
RightForeArm -2.596794 -0.000000 5.088685
RightHand 5.432965 -0.000000 1.782843
RightHandThumb1 -24.326973 -0.000000 -32.862282
LeftUpLeg -7.408320 -0.802348 -0.253401
LeftLeg -4.059832 -0.000000 0.000000
LeftFoot -6.307209 8.903445 -15.751919
LeftToeBase -4.604630 -0.000000 0.000000
RightUpLeg -8.175749 -3.001827 1.211456
RightLeg -3.811198 -0.000000 0.000000
RightFoot -6.727942 -6.507910 4.910943
RightToeBase 1.807080 -0.000000 -0.000000
190
root 2.599684 32.693469 -7.248996 14.473967 2.054844 -0.636039
Spine -15.227176 -6.135719 -0.279066
Head 10.887071 -1.814446 1.822200
LeftShoulder -20.709262 46.708718 8.723536
LeftArm 54.766580 -15.574058 -83.646586
LeftForeArm -3.057913 0.000000 4.831762
LeftHand 8.078349 -0.000000 4.574877
LeftHandThumb1 -26.253704 0.000000 33.147579
RightShoulder -6.179097 -6.536038 -18.794589
RightArm 14.529608 -0.850542 75.757776
RightForeArm -2.389331 -0.000000 5.228282
RightHand 5.306314 -0.000000 1.737275
RightHandThumb1 -24.326973 -0.000000 -32.862282
LeftUpLeg -7.724005 -0.872970 -0.185847
LeftLeg -3.930413 -0.000000 0.000000
LeftFoot -6.544521 8.922487 -15.729029
LeftToeBase -4.209800 -0.000000 0.000000
RightUpLeg -8.464526 -2.938933 1.244876
RightLeg -3.771701 -0.000000 0.000000
RightFoot -6.741906 -6.457147 5.017402
RightToeBase 1.918871 -0.000000 -0.000000
